<?xml version="1.0" encoding="UTF-8"?>
<svg version="1.1" xmlns="http://www.w3.org/2000/svg" width="94" height="94">
<path d="M0 0 C3.18470543 0.04918464 6.05797677 0.80100669 9 2 C11.1875 4.6875 11.1875 4.6875 13 8 C15.64574076 11.44094937 18.34853055 14.48178567 21.75 17.1875 C24.18427272 19.14844191 24.72277941 20.20430604 26 23 C26.49757812 24.06734375 26.99515625 25.1346875 27.5078125 26.234375 C28.04148438 27.39453125 28.57515625 28.5546875 29.125 29.75 C29.66382813 30.92046875 30.20265625 32.0909375 30.7578125 33.296875 C31.16773438 34.18890625 31.57765625 35.0809375 32 36 C32.66 36 33.32 36 34 36 C34.36615094 38.03955149 34.71739279 40.08178248 35.0625 42.125 C35.35833984 43.83042969 35.35833984 43.83042969 35.66015625 45.5703125 C35.99756134 48.9753892 35.72330588 51.67178131 35 55 C34.34 55 33.68 55 33 55 C32.35309078 56.6037331 31.70751236 58.20800306 31.0625 59.8125 C30.70285156 60.70582031 30.34320313 61.59914062 29.97265625 62.51953125 C29.26386514 64.3270909 28.6139753 66.15807409 28 68 C27.01 68.495 27.01 68.495 26 69 C25.67 69.66 25.34 70.32 25 71 C24.01 71.33 23.02 71.66 22 72 C21.33750244 72.76002319 21.33750244 72.76002319 20.66162109 73.53540039 C17.106716 76.66879382 11.12607614 75.46537829 6.625 75.4375 C4.91957031 75.4674707 4.91957031 75.4674707 3.1796875 75.49804688 C-5.16438452 75.49315012 -5.16438452 75.49315012 -9.09765625 73.171875 C-9.72542969 72.45515625 -10.35320313 71.7384375 -11 71 C-11.54785156 70.47019531 -12.09570312 69.94039063 -12.66015625 69.39453125 C-16.55902764 64.99608302 -18.89131326 60.47018149 -21 55 C-21.66 55 -22.32 55 -23 55 C-24.3142324 47.32772439 -24.04222923 40.92953583 -20 34 C-19.34 34 -18.68 34 -18 34 C-16.42801897 32.21707374 -16.42801897 32.21707374 -14.8125 29.9375 C-11.96925446 26.14848869 -8.98716606 22.88081867 -5.48046875 19.703125 C-2.16817017 15.89267069 -1.78607762 12.21265959 -2 7.3125 C-2.125 4.42578125 -2.125 4.42578125 -2 2 C-1.34 1.34 -0.68 0.68 0 0 Z M19 19 C19 20.65 19 22.3 19 24 C19.33 24 19.66 24 20 24 C20 22.35 20 20.7 20 19 C19.67 19 19.34 19 19 19 Z M18 24 C19 26 19 26 19 26 Z M-20 36 C-19 38 -19 38 -19 38 Z M-21 38 C-20 41 -20 41 -20 41 Z M33 40 C33 41.65 33 43.3 33 45 C33.33 45 33.66 45 34 45 C34 43.35 34 41.7 34 40 C33.67 40 33.34 40 33 40 Z M-22 41 C-22 42.65 -22 44.3 -22 46 C-21.67 46 -21.34 46 -21 46 C-21 44.35 -21 42.7 -21 41 C-21.33 41 -21.66 41 -22 41 Z M34 46 C35 48 35 48 35 48 Z M-23 47 C-22 49 -22 49 -22 49 Z " fill="#1FD7F2" transform="translate(41,9)"/>
<path d="M0 0 C0.495 1.485 0.495 1.485 1 3 C1.99 3 2.98 3 4 3 C4.66 2.34 5.32 1.68 6 1 C8.64718418 3.64718418 10.42188333 5.61338466 12 9 C12.49757812 10.06734375 12.99515625 11.1346875 13.5078125 12.234375 C14.04148438 13.39453125 14.57515625 14.5546875 15.125 15.75 C15.66382813 16.92046875 16.20265625 18.0909375 16.7578125 19.296875 C17.16773438 20.18890625 17.57765625 21.0809375 18 22 C18.66 22 19.32 22 20 22 C20.36615094 24.03955149 20.71739279 26.08178248 21.0625 28.125 C21.35833984 29.83042969 21.35833984 29.83042969 21.66015625 31.5703125 C21.99756134 34.9753892 21.72330588 37.67178131 21 41 C20.34 41 19.68 41 19 41 C18.35309078 42.6037331 17.70751236 44.20800306 17.0625 45.8125 C16.70285156 46.70582031 16.34320313 47.59914062 15.97265625 48.51953125 C15.26386514 50.3270909 14.6139753 52.15807409 14 54 C13.01 54.495 13.01 54.495 12 55 C11.505 55.99 11.505 55.99 11 57 C10.01 57.33 9.02 57.66 8 58 C7.33750244 58.76002319 7.33750244 58.76002319 6.66162109 59.53540039 C3.106716 62.66879382 -2.87392386 61.46537829 -7.375 61.4375 C-9.08042969 61.4674707 -9.08042969 61.4674707 -10.8203125 61.49804688 C-19.16438452 61.49315012 -19.16438452 61.49315012 -23.09765625 59.171875 C-23.72542969 58.45515625 -24.35320313 57.7384375 -25 57 C-25.54785156 56.47019531 -26.09570312 55.94039062 -26.66015625 55.39453125 C-30.55902764 50.99608302 -32.89131326 46.47018149 -35 41 C-35.66 41 -36.32 41 -37 41 C-38.0748291 34.72532201 -37.88341198 30.09339169 -36 24 C-35 27 -35 27 -35 29 C-34.24074219 28.90460937 -33.48148438 28.80921875 -32.69921875 28.7109375 C-31.70535156 28.60007812 -30.71148437 28.48921875 -29.6875 28.375 C-28.20830078 28.20097656 -28.20830078 28.20097656 -26.69921875 28.0234375 C-24 28 -24 28 -21 30 C-18.84725052 29.69159401 -18.84725052 29.69159401 -17 29 C-17.433125 29.72703125 -17.433125 29.72703125 -17.875 30.46875 C-20.73708576 35.63640485 -21.66642328 39.09739384 -21 45 C-19.21704684 50.15075357 -16.8926015 52.59985587 -12 55 C-8.08629176 55.68298046 -4.85772551 55.38121134 -1.1875 53.75 C2.59482781 50.72413776 4.68859974 47.78218263 5.23828125 42.87109375 C5.53515188 33.13686192 2.43089812 26.14544236 -4 19 C-4 18.34 -4 17.68 -4 17 C-3.01 16.34 -2.02 15.68 -1 15 C-1.37125 13.948125 -1.7425 12.89625 -2.125 11.8125 C-3.06138738 7.73252644 -2.89150456 6.58390337 -1 3 C-0.67 2.01 -0.34 1.02 0 0 Z M5 5 C5 6.65 5 8.3 5 10 C5.33 10 5.66 10 6 10 C6 8.35 6 6.7 6 5 C5.67 5 5.34 5 5 5 Z M4 10 C5 12 5 12 5 12 Z M19 26 C19 27.65 19 29.3 19 31 C19.33 31 19.66 31 20 31 C20 29.35 20 27.7 20 26 C19.67 26 19.34 26 19 26 Z M20 32 C21 34 21 34 21 34 Z M-37 33 C-36 35 -36 35 -36 35 Z " fill="#087DE8" transform="translate(55,23)"/>
<path d="M0 0 C3.18467041 0.0491841 6.05901405 0.79830682 9 2 C11.25 4.75 11.25 4.75 13 8 C13.89553576 9.08037018 14.81255327 10.1432885 15.75 11.1875 C18 14 18 14 18 17 C16.68 17 15.36 17 14 17 C12.05477623 20.45817559 11.91745781 22.56877603 12.875 26.3125 C13.24625 27.529375 13.6175 28.74625 14 30 C12.35 30.66 10.7 31.32 9 32 C8.34 31.34 7.68 30.68 7 30 C4.93125966 29.3574765 4.93125966 29.3574765 3 29 C3.061875 30.051875 3.12375 31.10375 3.1875 32.1875 C2.98714118 36.26146259 2.52615379 37.86408495 0 41 C-2.66685066 42.86679546 -4.90989163 43.96996388 -8 45 C-9.33772623 44.34219247 -10.67062882 43.67453279 -12 43 C-14.36222232 42.76020238 -14.36222232 42.76020238 -16.75 42.875 C-17.54921875 42.89304688 -18.3484375 42.91109375 -19.171875 42.9296875 C-19.77515625 42.95289063 -20.3784375 42.97609375 -21 43 C-21 40.36 -21 37.72 -21 35 C-19.515 34.505 -19.515 34.505 -18 34 C-16.34679883 32.14614786 -16.34679883 32.14614786 -14.75 29.875 C-11.93017204 26.10325559 -8.96665016 22.86222761 -5.48046875 19.703125 C-2.16817017 15.89267069 -1.78607762 12.21265959 -2 7.3125 C-2.125 4.42578125 -2.125 4.42578125 -2 2 C-1.34 1.34 -0.68 0.68 0 0 Z M-20 36 C-19 38 -19 38 -19 38 Z " fill="#09B7FD" transform="translate(41,9)"/>
<path d="M0 0 C0.99 0 1.98 0 3 0 C3.36615094 2.03955149 3.71739279 4.08178248 4.0625 6.125 C4.35833984 7.83042969 4.35833984 7.83042969 4.66015625 9.5703125 C4.99756134 12.9753892 4.72330588 15.67178131 4 19 C3.34 19 2.68 19 2 19 C1.35309078 20.6037331 0.70751236 22.20800306 0.0625 23.8125 C-0.47697266 25.15248047 -0.47697266 25.15248047 -1.02734375 26.51953125 C-1.73613486 28.3270909 -2.3860247 30.15807409 -3 32 C-3.99 32.495 -3.99 32.495 -5 33 C-5.495 33.99 -5.495 33.99 -6 35 C-6.99 35.33 -7.98 35.66 -9 36 C-9.66249756 36.76002319 -9.66249756 36.76002319 -10.33837891 37.53540039 C-13.893284 40.66879382 -19.87392386 39.46537829 -24.375 39.4375 C-26.08042969 39.4674707 -26.08042969 39.4674707 -27.8203125 39.49804688 C-36.16438452 39.49315012 -36.16438452 39.49315012 -40.09765625 37.171875 C-40.72542969 36.45515625 -41.35320313 35.7384375 -42 35 C-42.54785156 34.47019531 -43.09570312 33.94039062 -43.66015625 33.39453125 C-47.55902764 28.99608302 -49.89131326 24.47018149 -52 19 C-52.66 19 -53.32 19 -54 19 C-55.0748291 12.72532201 -54.88341198 8.09339169 -53 2 C-52.42004735 3.73985796 -51.84464213 5.48127166 -51.28125 7.2265625 C-51.0234375 8.01804687 -50.765625 8.80953125 -50.5 9.625 C-50.2421875 10.42164063 -49.984375 11.21828125 -49.71875 12.0390625 C-49.16501767 13.97517141 -49.16501767 13.97517141 -48 15 C-47.63039006 16.44956397 -47.30340007 17.91014655 -47 19.375 C-46.45118408 22.00760137 -45.85272538 24.44182385 -45 27 C-42.21983959 28.83968195 -42.21983959 28.83968195 -38.9375 30.5625 C-36.92740168 31.65316011 -34.93848841 32.78661736 -33 34 C-33 34.66 -33 35.32 -33 36 C-30.27022936 36.08126109 -27.5428983 36.14061663 -24.8125 36.1875 C-24.04357422 36.21263672 -23.27464844 36.23777344 -22.48242188 36.26367188 C-17.80679104 36.32387313 -14.75416629 36.08810453 -11 33 C-8.99864629 30.71717148 -8.99864629 30.71717148 -7.3125 28.125 C-6.73113281 27.28195313 -6.14976563 26.43890625 -5.55078125 25.5703125 C-3.09739198 21.50398974 -1.79829612 17.91430669 -1.375 13.1875 C-1.30023438 12.39730469 -1.22546875 11.60710938 -1.1484375 10.79296875 C-1.09945312 10.20128906 -1.05046875 9.60960937 -1 9 C-1.99 9 -2.98 9 -4 9 C-4 8.01 -4 7.02 -4 6 C-3.01 5.67 -2.02 5.34 -1 5 C-0.67 3.35 -0.34 1.7 0 0 Z M2 4 C2 5.65 2 7.3 2 9 C2.33 9 2.66 9 3 9 C3 7.35 3 5.7 3 4 C2.67 4 2.34 4 2 4 Z M3 10 C4 12 4 12 4 12 Z M-54 11 C-53 13 -53 13 -53 13 Z " fill="#4176C7" transform="translate(72,45)"/>
<path d="M0 0 C2.09821215 -0.39938767 2.09821215 -0.39938767 4 -1 C3.566875 -0.27296875 3.566875 -0.27296875 3.125 0.46875 C0.26291424 5.63640485 -0.66642328 9.09739384 0 15 C1.30647636 18.77426504 2.63540222 20.66208011 5.5625 23.375 C10.14605761 25.54177269 14.01783075 25.35446263 19 25 C17 28 17 28 15.1875 28.46875 C8.42438378 28.56536595 3.75712689 26.40149433 -2 23 C-2.62519531 22.65453125 -3.25039063 22.3090625 -3.89453125 21.953125 C-7.48716619 19.82027117 -8.96866232 18.03159273 -10 14 C-10.165 12.783125 -10.33 11.56625 -10.5 10.3125 C-10.67555436 6.92867967 -10.67555436 6.92867967 -13 5 C-13.125 1.875 -13.125 1.875 -13 -1 C-8.16595448 -2.01177697 -4.48346322 -2.24173161 0 0 Z " fill="#038DEE" transform="translate(34,53)"/>
<path d="M0 0 C0.33 0.99 0.66 1.98 1 3 C1.99 3 2.98 3 4 3 C4.66 2.34 5.32 1.68 6 1 C8.64063398 3.64063398 10.40409121 5.63419235 12 9 C12.42539063 9.81597656 12.85078125 10.63195313 13.2890625 11.47265625 C13.72992188 12.32730469 14.17078125 13.18195312 14.625 14.0625 C15.07101563 14.91972656 15.51703125 15.77695312 15.9765625 16.66015625 C17 19 17 19 17 22 C16.34 22 15.68 22 15 22 C13.515 18.535 13.515 18.535 12 15 C12 17.31 12 19.62 12 22 C6.555 23.485 6.555 23.485 1 25 C-4 19.25 -4 19.25 -4 17 C-3.01 16.34 -2.02 15.68 -1 15 C-1.556875 13.4221875 -1.556875 13.4221875 -2.125 11.8125 C-3.06138738 7.73252644 -2.89150456 6.58390337 -1 3 C-0.67 2.01 -0.34 1.02 0 0 Z M5 5 C5 6.65 5 8.3 5 10 C5.33 10 5.66 10 6 10 C6 8.35 6 6.7 6 5 C5.67 5 5.34 5 5 5 Z M4 10 C5 12 5 12 5 12 Z " fill="#03AAFD" transform="translate(55,23)"/>
<path d="M0 0 C3.18467041 0.0491841 6.05901405 0.79830682 9 2 C11.25 4.75 11.25 4.75 13 8 C13.89553576 9.08037018 14.81255327 10.1432885 15.75 11.1875 C18 14 18 14 18 17 C17.01 17 16.02 17 15 17 C14.855625 16.154375 14.71125 15.30875 14.5625 14.4375 C12.31956525 9.50304354 8.53243823 6.85814202 4 4 C3.34 4 2.68 4 2 4 C2.08121094 4.82242187 2.16242187 5.64484375 2.24609375 6.4921875 C2.76733727 15.70436886 0.90299916 20.10598639 -5 27 C-5.76828125 28.010625 -6.5365625 29.02125 -7.328125 30.0625 C-11.78141206 35.84292559 -11.78141206 35.84292559 -14 38 C-15.32 38 -16.64 38 -18 38 C-18 38.66 -18 39.32 -18 40 C-18.66 40 -19.32 40 -20 40 C-20.33 38.35 -20.66 36.7 -21 35 C-19.515 34.505 -19.515 34.505 -18 34 C-16.34679883 32.14614786 -16.34679883 32.14614786 -14.75 29.875 C-11.93017204 26.10325559 -8.96665016 22.86222761 -5.48046875 19.703125 C-2.16817017 15.89267069 -1.78607762 12.21265959 -2 7.3125 C-2.125 4.42578125 -2.125 4.42578125 -2 2 C-1.34 1.34 -0.68 0.68 0 0 Z M-20 36 C-19 38 -19 38 -19 38 Z " fill="#84EDFE" transform="translate(41,9)"/>
<path d="M0 0 C0.99 0 1.98 0 3 0 C3.36615094 2.03955149 3.71739279 4.08178248 4.0625 6.125 C4.25972656 7.26195312 4.45695312 8.39890625 4.66015625 9.5703125 C4.99756134 12.9753892 4.72330588 15.67178131 4 19 C3.34 19 2.68 19 2 19 C1.35309078 20.6037331 0.70751236 22.20800306 0.0625 23.8125 C-0.29714844 24.70582031 -0.65679687 25.59914063 -1.02734375 26.51953125 C-1.73613486 28.3270909 -2.3860247 30.15807409 -3 32 C-3.99 32.495 -3.99 32.495 -5 33 C-5.33 33.66 -5.66 34.32 -6 35 C-7.32 34.34 -8.64 33.68 -10 33 C-8.79196858 30.48326787 -7.47413619 28.10094252 -6.0625 25.6875 C-2.91302698 20.16707539 -0.52423065 15.50218113 -1 9 C-1.99 9 -2.98 9 -4 9 C-4 8.01 -4 7.02 -4 6 C-3.01 5.67 -2.02 5.34 -1 5 C-0.67 3.35 -0.34 1.7 0 0 Z M2 4 C2 5.65 2 7.3 2 9 C2.33 9 2.66 9 3 9 C3 7.35 3 5.7 3 4 C2.67 4 2.34 4 2 4 Z M3 10 C4 12 4 12 4 12 Z " fill="#1D64CD" transform="translate(72,45)"/>
<path d="M0 0 C2.85541213 0.08398271 4.56239033 0.60956385 6.703125 2.51953125 C9.83700878 5.99755648 9.83700878 5.99755648 11 8 C9.70342266 11.88973201 8.63476417 12.18261792 5 14 C2.04550809 15.16342687 -0.90105328 16.29375674 -4 17 C-4.66 16.67 -5.32 16.34 -6 16 C-4.92776619 13.77305286 -3.82445511 11.74019356 -2.4375 9.6875 C-0.71021218 6.45822277 -0.35494426 3.62043143 0 0 Z " fill="#7EF6FE" transform="translate(44,38)"/>
<path d="M0 0 C1.5 1.1875 1.5 1.1875 3 3 C3.1875 5.6875 3.1875 5.6875 3 8 C-0.66447432 9.64800856 -3.81203466 10.33580973 -7.8125 10.625 C-8.78832031 10.69976562 -9.76414062 10.77453125 -10.76953125 10.8515625 C-11.87361328 10.92503906 -11.87361328 10.92503906 -13 11 C-13 10.67 -13 10.34 -13 10 C-14.98 10 -16.96 10 -19 10 C-18.34 8.68 -17.68 7.36 -17 6 C-16.01 6.33 -15.02 6.66 -14 7 C-11.58435103 6.35428413 -11.58435103 6.35428413 -9.0625 5.25 C-8.20785156 4.90453125 -7.35320313 4.5590625 -6.47265625 4.203125 C-4.05322305 3.02589684 -2.08847583 1.68628675 0 0 Z " fill="#33DDF7" transform="translate(55,47)"/>
<path d="M0 0 C3.18467041 0.0491841 6.05901405 0.79830682 9 2 C11.25 4.75 11.25 4.75 13 8 C13.89553576 9.08037018 14.81255327 10.1432885 15.75 11.1875 C18 14 18 14 18 17 C17.01 17 16.02 17 15 17 C14.855625 16.154375 14.71125 15.30875 14.5625 14.4375 C12.31956525 9.50304354 8.53243823 6.85814202 4 4 C3.34 4 2.68 4 2 4 C2.02320313 4.91523438 2.04640625 5.83046875 2.0703125 6.7734375 C2.08835937 7.96195313 2.10640625 9.15046875 2.125 10.375 C2.14820313 11.55835938 2.17140625 12.74171875 2.1953125 13.9609375 C2 17 2 17 0 19 C-0.33 18.34 -0.66 17.68 -1 17 C-1.66 16.67 -2.32 16.34 -3 16 C-2.67 15.01 -2.34 14.02 -2 13 C-1.97045621 10.15957588 -2.06590599 7.33491152 -2.16015625 4.49609375 C-2 2 -2 2 0 0 Z " fill="#5EF0FE" transform="translate(41,9)"/>
<path d="M0 0 C1 2 1 2 0.27734375 4.3359375 C-1.04211339 7.08783283 -2.53505243 9.24387207 -4.4375 11.625 C-5.03433594 12.38039063 -5.63117187 13.13578125 -6.24609375 13.9140625 C-7.76670984 15.72254578 -9.22161454 17.44453194 -11 19 C-11.66 19 -12.32 19 -13 19 C-13 19.66 -13 20.32 -13 21 C-14.98 21 -16.96 21 -19 21 C-18.505 19.515 -18.505 19.515 -18 18 C-17.34 18 -16.68 18 -16 18 C-16 17.34 -16 16.68 -16 16 C-15.24847656 15.75894531 -14.49695313 15.51789062 -13.72265625 15.26953125 C-10.60739056 13.81693247 -9.43731878 12.44827071 -7.4375 9.6875 C-6.84710938 8.88828125 -6.25671875 8.0890625 -5.6484375 7.265625 C-5.10445312 6.51796875 -4.56046875 5.7703125 -4 5 C-2.67082708 3.33001351 -1.33985898 1.66142513 0 0 Z " fill="#2FC1FD" transform="translate(39,31)"/>
<path d="M0 0 C2.475 0.99 2.475 0.99 5 2 C4.01 3.485 4.01 3.485 3 5 C3.33 5.99 3.66 6.98 4 8 C3.42307692 14.57692308 3.42307692 14.57692308 1 17 C0.5359375 18.2375 0.5359375 18.2375 0.0625 19.5 C-1 22 -1 22 -4 24 C-3.25 17.375 -3.25 17.375 -1 14 C-0.79520818 10.82917115 -0.79520818 10.82917115 -0.9375 7.375 C-0.99143113 5.25058232 -1.02048901 3.12500335 -1 1 C-0.67 0.67 -0.34 0.34 0 0 Z " fill="#0ADCFE" transform="translate(43,12)"/>
<path d="M0 0 C0.57995265 1.73985796 1.15535787 3.48127166 1.71875 5.2265625 C1.9765625 6.01804687 2.234375 6.80953125 2.5 7.625 C2.7578125 8.42164063 3.015625 9.21828125 3.28125 10.0390625 C3.83498233 11.97517141 3.83498233 11.97517141 5 13 C5.23192865 14.51469448 5.41215238 16.03754562 5.5625 17.5625 C5.64628906 18.38878906 5.73007812 19.21507813 5.81640625 20.06640625 C5.90728516 21.02353516 5.90728516 21.02353516 6 22 C5.01 22 4.02 22 3 22 C2.34 20.35 1.68 18.7 1 17 C0.34 17 -0.32 17 -1 17 C-2.0748291 10.72532201 -1.88341198 6.09339169 0 0 Z M-1 9 C0 11 0 11 0 11 Z " fill="#318EE0" transform="translate(19,47)"/>
<path d="M0 0 C4.75 0.75 4.75 0.75 7 3 C7.125 5.625 7.125 5.625 7 8 C5.9275 8.433125 4.855 8.86625 3.75 9.3125 C0.83727354 10.55321513 -1.56036166 11.95070379 -4 14 C-3.69320312 13.44828125 -3.38640625 12.8965625 -3.0703125 12.328125 C-1.90557059 9.79459879 -1.37942044 7.48828238 -0.875 4.75 C-0.70742188 3.85796875 -0.53984375 2.9659375 -0.3671875 2.046875 C-0.24601562 1.37140625 -0.12484375 0.6959375 0 0 Z " fill="#A1FBFE" transform="translate(44,38)"/>
<path d="M0 0 C0.66 0.33 1.32 0.66 2 1 C1.26394531 1.7734375 0.52789062 2.546875 -0.23046875 3.34375 C-6.03302622 9.51132305 -11.17489986 15.34979972 -15 23 C-15.66 23 -16.32 23 -17 23 C-17.33 21.35 -17.66 19.7 -18 18 C-17.01 17.67 -16.02 17.34 -15 17 C-13.38111153 15.17946228 -13.38111153 15.17946228 -11.8125 12.9375 C-8.25470134 8.19376846 -4.28599664 4.08561238 0 0 Z M-17 19 C-16 21 -16 21 -16 21 Z " fill="#CDFAFE" transform="translate(38,26)"/>
<path d="M0 0 C0.99 0 1.98 0 3 0 C3.33 0.99 3.66 1.98 4 3 C6.77768354 4.87632163 6.77768354 4.87632163 10.0625 6.625 C12.05465134 7.72684333 14.03775499 8.84573823 16 10 C16 10.33 16 10.66 16 11 C11.545 11.495 11.545 11.495 7 12 C6.34 10.68 5.68 9.36 5 8 C4.15703448 6.93224367 3.28241945 5.88855038 2.375 4.875 C0 2 0 2 0 0 Z " fill="#297ACE" transform="translate(23,69)"/>
<path d="M0 0 C2 3 2 3 1.7578125 5.26171875 C1.54898438 6.06222656 1.34015625 6.86273438 1.125 7.6875 C0.92132813 8.49574219 0.71765625 9.30398437 0.5078125 10.13671875 C0.34023438 10.75160156 0.17265625 11.36648437 0 12 C-1.65 12.33 -3.3 12.66 -5 13 C-5.125 5.375 -5.125 5.375 -4 2 C-3.01 2 -2.02 2 -1 2 C-0.67 1.34 -0.34 0.68 0 0 Z " fill="#2387F0" transform="translate(60,24)"/>
<path d="M0 0 C3.13691081 2.09127387 3.54635135 2.73801243 5 6 C5.42539063 6.81597656 5.85078125 7.63195313 6.2890625 8.47265625 C6.72992188 9.32730469 7.17078125 10.18195312 7.625 11.0625 C8.07101563 11.91972656 8.51703125 12.77695312 8.9765625 13.66015625 C10 16 10 16 10 19 C9.34 19 8.68 19 8 19 C7.32645501 17.56570999 6.66140299 16.12742943 6 14.6875 C5.62875 13.88699219 5.2575 13.08648437 4.875 12.26171875 C4 10 4 10 4 7 C2.02 7.66 0.04 8.32 -2 9 C-1.34 6.03 -0.68 3.06 0 0 Z " fill="#8DC4F3" transform="translate(62,26)"/>
<path d="M0 0 C4.5519071 1.35326968 5.76563075 2.90365638 8 7 C8.87850133 8.05632486 9.77520994 9.0977154 10.6875 10.125 C13 13 13 13 13 16 C12.01 16 11.02 16 10 16 C9.77570312 15.10023437 9.55140625 14.20046875 9.3203125 13.2734375 C7.77163936 9.43382776 6.16662027 8.07261507 2.875 5.625 C1.96492188 4.93664062 1.05484375 4.24828125 0.1171875 3.5390625 C-0.58148438 3.03117188 -1.28015625 2.52328125 -2 2 C-1.34 1.34 -0.68 0.68 0 0 Z " fill="#69DEFE" transform="translate(46,10)"/>
<path d="M0 0 C0.33 0.99 0.66 1.98 1 3 C-1 6 -1 6 -2.84765625 6.66015625 C-3.57855469 6.79292969 -4.30945313 6.92570312 -5.0625 7.0625 C-5.8565625 7.21589844 -6.650625 7.36929688 -7.46875 7.52734375 C-8.3040625 7.68332031 -9.139375 7.83929688 -10 8 C-11.6888651 8.36880337 -13.37645625 8.74350592 -15.0625 9.125 C-17.03125 9.5625 -17.03125 9.5625 -19 10 C-18.34 8.68 -17.68 7.36 -17 6 C-16.01 6.33 -15.02 6.66 -14 7 C-11.58435103 6.35428413 -11.58435103 6.35428413 -9.0625 5.25 C-8.20785156 4.90453125 -7.35320313 4.5590625 -6.47265625 4.203125 C-4.05322305 3.02589684 -2.08847583 1.68628675 0 0 Z " fill="#50EAFD" transform="translate(55,47)"/>
<path d="M0 0 C0 1.65 0 3.3 0 5 C-5.445 6.485 -5.445 6.485 -11 8 C-8.57913179 3.15826358 -5.66773713 0 0 0 Z " fill="#0595F7" transform="translate(67,40)"/>
<path d="M0 0 C2.41445371 3.02939501 3.46292236 5.13304097 4 9 C4.66 9 5.32 9 6 9 C6 10.65 6 12.3 6 14 C5.01 14.33 4.02 14.66 3 15 C1.08697693 11.73386305 0.64325339 9.00554752 0.375 5.25 C0.30023438 4.26515625 0.22546875 3.2803125 0.1484375 2.265625 C0.09945312 1.51796875 0.05046875 0.7703125 0 0 Z " fill="#2C84E5" transform="translate(66,36)"/>
<path d="M0 0 C0.33 0 0.66 0 1 0 C0.67 4.62 0.34 9.24 0 14 C1.98 13.34 3.96 12.68 6 12 C5.67 12.99 5.34 13.98 5 15 C3.02 15 1.04 15 -1 15 C-3.21443299 8.7257732 -3.21443299 8.7257732 -2.1875 5.25 C-1.795625 4.5075 -1.40375 3.765 -1 3 C-0.67 2.01 -0.34 1.02 0 0 Z " fill="#0C9EFA" transform="translate(55,23)"/>
<path d="M0 0 C1.33363823 3.63796253 0.65099829 5.57375218 -0.875 9.0625 C-1.24367188 9.91972656 -1.61234375 10.77695313 -1.9921875 11.66015625 C-2.32476562 12.43230469 -2.65734375 13.20445313 -3 14 C-3.33 14.99 -3.66 15.98 -4 17 C-4.99 17 -5.98 17 -7 17 C-6.24470474 13.13747743 -4.60515228 9.79819633 -2.9375 6.25 C-2.38964844 5.07953125 -1.84179688 3.9090625 -1.27734375 2.703125 C-0.64505859 1.36507812 -0.64505859 1.36507812 0 0 Z " fill="#4A87C9" transform="translate(73,60)"/>
<path d="M0 0 C0.33 0 0.66 0 1 0 C0.74438677 2.3431213 0.40729228 4.67843403 0 7 C-0.99 7.495 -0.99 7.495 -2 8 C-1.47731534 5.23723823 -0.89130413 2.6739124 0 0 Z M-5 8 C-4.01 8.33 -3.02 8.66 -2 9 C-3.24976756 12.65316671 -3.67098753 13.78065836 -7 16 C-6.125 9.125 -6.125 9.125 -5 8 Z " fill="#0ED1FF" transform="translate(46,20)"/>
<path d="M0 0 C1 2 1 2 0.375 4.3125 C-1.26624041 7.52037899 -3.36337053 9.57152549 -6 12 C-6.71484375 10.265625 -6.71484375 10.265625 -7 8 C-5.56640625 5.859375 -5.56640625 5.859375 -3.5625 3.75 C-2.57443359 2.69039062 -2.57443359 2.69039062 -1.56640625 1.609375 C-1.04949219 1.07828125 -0.53257813 0.5471875 0 0 Z " fill="#29D6FF" transform="translate(39,31)"/>
<path d="M0 0 C-1.25844278 3.88019859 -2.42416203 5.9411842 -6 8 C-6.99 8 -7.98 8 -9 8 C-7.50345469 3.51036406 -4.94314084 0 0 0 Z " fill="#08BDFE" transform="translate(66,33)"/>
<path d="M0 0 C0.33 0 0.66 0 1 0 C1.33 3.63 1.66 7.26 2 11 C1.01 11.495 1.01 11.495 0 12 C-0.33 11.01 -0.66 10.02 -1 9 C-1.99 9 -2.98 9 -4 9 C-4 8.01 -4 7.02 -4 6 C-3.01 5.67 -2.02 5.34 -1 5 C-0.67 3.35 -0.34 1.7 0 0 Z " fill="#1667DA" transform="translate(72,45)"/>
<path d="M0 0 C0.66 1.32 1.32 2.64 2 4 C-3.41538462 8.06153846 -3.41538462 8.06153846 -6.375 7.75 C-6.91125 7.5025 -7.4475 7.255 -8 7 C-7.05125 6.401875 -6.1025 5.80375 -5.125 5.1875 C-1.86035803 3.18437474 -1.86035803 3.18437474 0 0 Z " fill="#6CF0FE" transform="translate(53,44)"/>
<path d="M0 0 C0.66 0.99 1.32 1.98 2 3 C1.03221758 7.22305057 0.12148941 8.87851059 -3 12 C-2.67 9.03 -2.34 6.06 -2 3 C-1.34 3 -0.68 3 0 3 C0 2.01 0 1.02 0 0 Z " fill="#1C59DB" transform="translate(60,24)"/>
<path d="M0 0 C0.99 0.66 1.98 1.32 3 2 C3.1875 4.625 3.1875 4.625 3 7 C1.35 7.66 -0.3 8.32 -2 9 C-1.34 6.03 -0.68 3.06 0 0 Z " fill="#53C4FE" transform="translate(62,26)"/>
<path d="M0 0 C2.475 0.99 2.475 0.99 5 2 C3.71937515 3.7074998 2.38232443 5.37373596 1 7 C0.34 7 -0.32 7 -1 7 C-1.04254356 5.00045254 -1.04080783 2.99958364 -1 1 C-0.67 0.67 -0.34 0.34 0 0 Z " fill="#05E8FE" transform="translate(43,12)"/>
<path d="M0 0 C-1 3 -1 3 -4 5 C-6.1875 4.625 -6.1875 4.625 -8 4 C-8 3.34 -8 2.68 -8 2 C-3.61016949 -1.20338983 -3.61016949 -1.20338983 0 0 Z " fill="#4775B2" transform="translate(64,79)"/>
<path d="M0 0 C5.75 4.625 5.75 4.625 8 8 C8 8.99 8 9.98 8 11 C7.01 11 6.02 11 5 11 C4.731875 10.071875 4.46375 9.14375 4.1875 8.1875 C3.06289965 5.1688359 2.29293427 4.0844857 0 2 C0 1.34 0 0.68 0 0 Z " fill="#80D4FC" transform="translate(51,15)"/>
<path d="M0 0 C2.64 0 5.28 0 8 0 C7.67 0.66 7.34 1.32 7 2 C5.5459375 2.4640625 5.5459375 2.4640625 4.0625 2.9375 C0.7319557 3.74744122 0.7319557 3.74744122 -1 7 C-0.67 4.69 -0.34 2.38 0 0 Z " fill="#1DE8FD" transform="translate(35,56)"/>
<path d="M0 0 C0.33 1.32 0.66 2.64 1 4 C-1.93828597 6.50298434 -4.17902761 7.46930939 -8 8 C-8 7.34 -8 6.68 -8 6 C-7.236875 5.7525 -6.47375 5.505 -5.6875 5.25 C-2.7635955 3.89004442 -1.69995644 2.68414174 0 0 Z " fill="#3CCEFE" transform="translate(31,41)"/>
<path d="M0 0 C1.32 0 2.64 0 4 0 C3.34 1.98 2.68 3.96 2 6 C1.34 6 0.68 6 0 6 C-0.38218767 4.34385343 -0.71395102 2.67542976 -1 1 C-0.67 0.67 -0.34 0.34 0 0 Z M0 2 C1 4 1 4 1 4 Z " fill="#C5EBFE" transform="translate(21,43)"/>
<path d="M0 0 C0.99 0.66 1.98 1.32 3 2 C1.6875 3.5 1.6875 3.5 0 5 C-0.99 5 -1.98 5 -3 5 C-2.625 3.0625 -2.625 3.0625 -2 1 C-1.34 0.67 -0.68 0.34 0 0 Z " fill="#6ADCFE" transform="translate(27,42)"/>
<path d="M0 0 C2.50298434 2.93828597 3.46930939 5.17902761 4 9 C3.01 8.67 2.02 8.34 1 8 C0.67 5.36 0.34 2.72 0 0 Z " fill="#2C98F1" transform="translate(66,36)"/>
<path d="M0 0 C3.96 0 7.92 0 12 0 C12 0.33 12 0.66 12 1 C8.04 1 4.08 1 0 1 C0 0.67 0 0.34 0 0 Z " fill="#3374DD" transform="translate(42,85)"/>
<path d="M0 0 C0.66 1.32 1.32 2.64 2 4 C1.34 3.67 0.68 3.34 0 3 C0 2.01 0 1.02 0 0 Z " fill="#1190EE" transform="translate(20,67)"/>
<path d="M0 0 C0 3 0 3 0 3 Z " fill="#EFFFFF" transform="translate(25,37)"/>
<path d="M0 0 C0.99 0.495 0.99 0.495 2 1 C1.67 1.66 1.34 2.32 1 3 C0.67 2.01 0.34 1.02 0 0 Z " fill="#8F6FFF" transform="translate(65,28)"/>
<path d="M0 0 C0 3 0 3 0 3 Z " fill="#9FEFFF" transform="translate(38,22)"/>
<path d="M0 0 C0.99 0.495 0.99 0.495 2 1 C1.67 1.66 1.34 2.32 1 3 C0.67 2.01 0.34 1.02 0 0 Z " fill="#8ADFFF" transform="translate(58,20)"/>
<path d="M0 0 C3 1 3 1 3 1 Z " fill="#009BFF" transform="translate(54,84)"/>
<path d="M0 0 C3 1 3 1 3 1 Z " fill="#008D8D" transform="translate(38,84)"/>
<path d="" fill="#008DE2" transform="translate(0,0)"/>
<path d="" fill="#3871FF" transform="translate(0,0)"/>
<path d="" fill="#1C55E2" transform="translate(0,0)"/>
<path d="" fill="#9B9BFF" transform="translate(0,0)"/>
<path d="M0 0 C0.66 0 1.32 0 2 0 C1.67 0.66 1.34 1.32 1 2 C0.67 1.34 0.34 0.68 0 0 Z " fill="#8694FF" transform="translate(53,15)"/>
<path d="" fill="#006ABF" transform="translate(0,0)"/>
<path d="" fill="#009FFF" transform="translate(0,0)"/>
<path d="" fill="#DFDFFF" transform="translate(0,0)"/>
<path d="" fill="#72A5FF" transform="translate(0,0)"/>
<path d="" fill="#7F9FBF" transform="translate(0,0)"/>
<path d="" fill="#55D4FF" transform="translate(0,0)"/>
<path d="" fill="#9FDFFF" transform="translate(0,0)"/>
<path d="" fill="#D4FFFF" transform="translate(0,0)"/>
<path d="" fill="#BFFFFF" transform="translate(0,0)"/>
<path d="M0 0 C2 1 2 1 2 1 Z " fill="#2AFFFF" transform="translate(44,9)"/>
<path d="M0 0 C2 1 2 1 2 1 Z " fill="#BFFFFF" transform="translate(42,8)"/>
<path d="" fill="#55AAAA" transform="translate(0,0)"/>
<path d="" fill="#7FFFFF" transform="translate(0,0)"/>
<path d="" fill="#5555AA" transform="translate(0,0)"/>
<path d="" fill="#7F7F7F" transform="translate(0,0)"/>
<path d="" fill="#3366CC" transform="translate(0,0)"/>
<path d="" fill="#003FBF" transform="translate(0,0)"/>
<path d="" fill="#007FFF" transform="translate(0,0)"/>
<path d="" fill="#5555FF" transform="translate(0,0)"/>
<path d="" fill="#55AAFF" transform="translate(0,0)"/>
<path d="" fill="#55AAFF" transform="translate(0,0)"/>
<path d="" fill="#3F7FBF" transform="translate(0,0)"/>
<path d="" fill="#FFFFFF" transform="translate(0,0)"/>
<path d="" fill="#AAFFFF" transform="translate(0,0)"/>
<path d="" fill="#AAAAFF" transform="translate(0,0)"/>
<path d="" fill="#AAFFFF" transform="translate(0,0)"/>
<path d="" fill="#FFFFFF" transform="translate(0,0)"/>
<path d="" fill="#FFFFFF" transform="translate(0,0)"/>
<path d="" fill="#7FBFFF" transform="translate(0,0)"/>
<path d="" fill="#FFFFFF" transform="translate(0,0)"/>
<path d="" fill="#AAFFFF" transform="translate(0,0)"/>
<path d="" fill="#AAFFFF" transform="translate(0,0)"/>
<path d="" fill="#BFFFFF" transform="translate(0,0)"/>
<path d="" fill="#CCFFFF" transform="translate(0,0)"/>
<path d="" fill="#FFFFFF" transform="translate(0,0)"/>
<path d="" fill="#3FFFFF" transform="translate(0,0)"/>
<path d="" fill="#3FBFFF" transform="translate(0,0)"/>
<path d="" fill="#55FFFF" transform="translate(0,0)"/>
</svg>
